<mxfile host="app.diagrams.net" modified="2021-07-11T11:15:20.730Z" agent="5.0 (Macintosh; Intel Mac OS X 10_15_6) AppleWebKit/605.1.15 (KHTML, like Gecko) Version/14.0.3 Safari/605.1.15" etag="3CjohvxVPJdrXQCRXBlL" version="14.6.11" type="github">
  <diagram id="mO3EZ8TymO1sTqXQnWDi" name="第 1 页">
    <mxGraphModel dx="946" dy="443" grid="1" gridSize="10" guides="1" tooltips="1" connect="1" arrows="1" fold="1" page="1" pageScale="1" pageWidth="827" pageHeight="1169" math="0" shadow="0">
      <root>
        <mxCell id="0" />
        <mxCell id="1" parent="0" />
        <mxCell id="fQ69PbCzFVGLdN5145bK-1" value="主机A" style="rounded=0;whiteSpace=wrap;html=1;fontSize=16;fillColor=#cdeb8b;strokeColor=#E6E6E6;" vertex="1" parent="1">
          <mxGeometry x="200" y="200" width="80" height="40" as="geometry" />
        </mxCell>
        <mxCell id="fQ69PbCzFVGLdN5145bK-2" value="&lt;span style=&quot;font-size: 16px;&quot;&gt;主机B&lt;/span&gt;" style="rounded=0;whiteSpace=wrap;html=1;fontSize=16;fillColor=#ffcccc;strokeColor=#E6E6E6;" vertex="1" parent="1">
          <mxGeometry x="280" y="200" width="80" height="40" as="geometry" />
        </mxCell>
        <mxCell id="fQ69PbCzFVGLdN5145bK-3" value="&lt;span style=&quot;font-size: 16px;&quot;&gt;主机C&lt;/span&gt;" style="rounded=0;whiteSpace=wrap;html=1;fontSize=16;fillColor=#ffcc99;strokeColor=#E6E6E6;" vertex="1" parent="1">
          <mxGeometry x="360" y="200" width="80" height="40" as="geometry" />
        </mxCell>
        <mxCell id="fQ69PbCzFVGLdN5145bK-4" value="&lt;span style=&quot;font-size: 16px;&quot;&gt;主机D&lt;/span&gt;" style="rounded=0;whiteSpace=wrap;html=1;fontSize=16;fillColor=#cce5ff;strokeColor=#E6E6E6;" vertex="1" parent="1">
          <mxGeometry x="440" y="200" width="80" height="40" as="geometry" />
        </mxCell>
        <mxCell id="fQ69PbCzFVGLdN5145bK-6" value="" style="shape=flexArrow;endArrow=classic;html=1;fontSize=16;fillColor=#fff2cc;strokeColor=none;" edge="1" parent="1">
          <mxGeometry width="50" height="50" relative="1" as="geometry">
            <mxPoint x="60" y="219.5" as="sourcePoint" />
            <mxPoint x="170" y="220" as="targetPoint" />
          </mxGeometry>
        </mxCell>
        <mxCell id="fQ69PbCzFVGLdN5145bK-7" value="心跳包" style="text;html=1;align=center;verticalAlign=middle;resizable=0;points=[];autosize=1;fontSize=16;fillColor=#fff2cc;" vertex="1" parent="1">
          <mxGeometry x="75" y="190" width="60" height="20" as="geometry" />
        </mxCell>
        <mxCell id="fQ69PbCzFVGLdN5145bK-9" value="队头" style="text;html=1;align=center;verticalAlign=middle;resizable=0;points=[];autosize=1;strokeColor=none;fontSize=16;" vertex="1" parent="1">
          <mxGeometry x="455" y="290" width="50" height="20" as="geometry" />
        </mxCell>
        <mxCell id="fQ69PbCzFVGLdN5145bK-10" value="队尾" style="text;html=1;align=center;verticalAlign=middle;resizable=0;points=[];autosize=1;strokeColor=none;fontSize=16;" vertex="1" parent="1">
          <mxGeometry x="215" y="290" width="50" height="20" as="geometry" />
        </mxCell>
        <mxCell id="fQ69PbCzFVGLdN5145bK-11" value="" style="endArrow=classic;html=1;fontSize=16;entryX=0.5;entryY=1;entryDx=0;entryDy=0;" edge="1" parent="1" target="fQ69PbCzFVGLdN5145bK-1">
          <mxGeometry width="50" height="50" relative="1" as="geometry">
            <mxPoint x="240" y="280" as="sourcePoint" />
            <mxPoint x="260" y="240" as="targetPoint" />
          </mxGeometry>
        </mxCell>
        <mxCell id="fQ69PbCzFVGLdN5145bK-12" value="" style="endArrow=classic;html=1;fontSize=16;entryX=0.5;entryY=1;entryDx=0;entryDy=0;" edge="1" parent="1" target="fQ69PbCzFVGLdN5145bK-4">
          <mxGeometry width="50" height="50" relative="1" as="geometry">
            <mxPoint x="480" y="280" as="sourcePoint" />
            <mxPoint x="425" y="250" as="targetPoint" />
          </mxGeometry>
        </mxCell>
      </root>
    </mxGraphModel>
  </diagram>
</mxfile>
